:SAMPLES-PER-SECOND 30
:FULLY-SPECIFIED
:DEGREES
214
root  -1.33126 27.8176 -6.20009 -164.111 6.20769 179.327
RightUpLeg  -40.4751 -2.89806 -3.0987
RightLeg  91.1316 16.8463 -12.4631
RightFoot  -44.6005 6.82944 23.4443
RightToes  -1.16415e-010 -3.18055e-015 -2.98177e-016
Spine  38.7986 -1.3921 7.0675
Spine1  -1.27697 1.75648 -15.985
HEad  -28.1879 -6.7796 1.32964
LeftShoulder1  -3.88251e-019 9.70628e-020 -3.87848e-018
LeftArm  -31.4521 51.435 -49.1268
LeftForeArm  -9.27935 -43.6039 10.3752
LeftHand  -5.44351 -9.3214 42.4067
RightShoulder  3.41358 7.94139 17.1247
RightArm  -6.80999 -29.1666 30.9919
RightForeArm  4.92523 27.7345 -15.112
RightHand  -1.31844 0.664361 -24.5522
LeftUpLeg  -79.6018 3.33717 -8.31433
LeftLeg  80.9737 -12.3026 13.5103
LeftFoot  -20.021 -0.046169 0.129249
LeftToes  1.69338e-011 3.79281e-011 -2.20049e-011
215
root  -1.40222 28.22 -6.7939 -163.263 5.806 179.935
RightUpLeg  -39.2389 -3.74256 -2.55263
RightLeg  88.8987 16.3558 -11.9162
RightFoot  -43.7767 6.66501 23.5242
RightToes  -1.16415e-010 -3.18055e-015 -2.98177e-016
Spine  38.276 -1.18892 6.67624
Spine1  -1.24528 1.70497 -15.6032
HEad  -28.1195 -6.97893 1.75407
LeftShoulder1  -3.88251e-019 9.70628e-020 -3.87848e-018
LeftArm  -32.2699 50.9602 -48.0864
LeftForeArm  -8.32499 -47.1144 11.9096
LeftHand  -4.80718 -7.85003 41.7942
RightShoulder  3.50139 8.04491 17.5169
RightArm  -5.54966 -30.3697 31.1412
RightForeArm  5.71654 26.7177 -14.5922
RightHand  -1.09602 0.28834 -21.7939
LeftUpLeg  -78.4971 3.26805 -7.92416
LeftLeg  80.2918 -12.1697 13.2746
LeftFoot  -21.0811 -0.038278 0.262482
LeftToes  1.69338e-011 3.79281e-011 -2.20049e-011
216
root  -1.46359 28.6679 -7.40277 -162.544 5.45662 -179.594
RightUpLeg  -37.9935 -4.62188 -2.05862
RightLeg  86.5075 15.8929 -11.9814
RightFoot  -42.0976 6.34057 23.7242
RightToes  -1.16415e-010 -3.18055e-015 -2.98177e-016
Spine  37.7558 -0.949879 6.16332
Spine1  -1.42652 1.66435 -15.2748
HEad  -28.1977 -7.28517 2.53716
LeftShoulder1  -3.88251e-019 9.70628e-020 -3.87848e-018
LeftArm  -32.5269 50.4681 -46.7125
LeftForeArm  -7.68364 -50.5124 13.6185
LeftHand  -4.19624 -6.52034 40.833
RightShoulder  3.6069 8.14268 18.0268
RightArm  -4.0435 -32.1154 30.7896
RightForeArm  5.85348 26.4516 -14.4547
RightHand  -0.89928 -0.0126927 -18.9135
LeftUpLeg  -77.0914 3.47905 -7.81444
LeftLeg  79.3864 -12.014 12.8527
LeftFoot  -22.2998 -0.00701595 0.65886
LeftToes  1.69338e-011 3.79281e-011 -2.20049e-011
217
root  -1.51242 29.1551 -8.04869 -162.022 5.05118 -179.055
RightUpLeg  -36.5747 -5.22708 -1.42126
RightLeg  83.9389 15.3855 -12.966
RightFoot  -39.678 5.80934 23.787
RightToes  -1.16415e-010 -3.18055e-015 -2.98177e-016
Spine  37.3685 -0.737995 5.72729
Spine1  -1.87849 1.6084 -14.8559
HEad  -28.6193 -7.88802 3.81463
LeftShoulder1  -3.88251e-019 9.70628e-020 -3.87848e-018
LeftArm  -32.3912 49.5741 -45.0355
LeftForeArm  -6.48445 -52.7798 14.9717
LeftHand  -4.29408 -6.69553 41.0987
RightShoulder  3.74638 8.25982 18.7115
RightArm  -2.08326 -34.109 29.8389
RightForeArm  5.54592 26.6673 -14.5573
RightHand  -0.760941 -0.191194 -16.5672
LeftUpLeg  -75.3205 3.85149 -7.62545
LeftLeg  78.3007 -11.8621 12.2081
LeftFoot  -23.454 0.0285702 1.0152
LeftToes  1.69338e-011 3.79281e-011 -2.20049e-011
218
root  -1.53476 29.6403 -8.73217 -161.625 4.43614 -178.522
RightUpLeg  -35.4464 -5.58795 -0.803054
RightLeg  82.1848 14.9957 -13.4126
RightFoot  -36.3025 5.29501 24.9743
RightToes  -1.16415e-010 -3.18055e-015 -2.98177e-016
Spine  37.2083 -0.564569 5.1976
Spine1  -2.77794 1.41323 -14.1032
HEad  -29.4123 -9.02633 5.54134
LeftShoulder1  -3.88251e-019 9.70628e-020 -3.87848e-018
LeftArm  -31.8781 48.3147 -43.1438
LeftForeArm  -4.91587 -53.8179 15.7114
LeftHand  -4.91311 -7.96694 42.2982
RightShoulder  3.91229 8.4061 19.4988
RightArm  0.281236 -36.177 28.3602
RightForeArm  5.07208 27.0927 -14.7669
RightHand  -0.679783 -0.235078 -14.9243
LeftUpLeg  -73.3702 4.00982 -7.21514
LeftLeg  77.1726 -11.729 11.551
LeftFoot  -24.4158 0.0480501 1.15096
LeftToes  1.69338e-011 3.79281e-011 -2.20049e-011
219
root  -1.53349 30.1111 -9.41077 -161.199 3.77144 -178.239
RightUpLeg  -35.8105 -6.014 -0.454683
RightLeg  82.1842 14.9817 -13.7227
RightFoot  -29.7613 4.15855 27.5925
RightToes  -1.16415e-010 -3.18055e-015 -2.98177e-016
Spine  37.2819 -0.348596 4.24941
Spine1  -4.16134 1.06251 -13.0152
HEad  -30.4656 -10.6708 7.50966
LeftShoulder1  -3.88251e-019 9.70628e-020 -3.87848e-018
LeftArm  -30.9716 46.9725 -41.238
LeftForeArm  -4.2375 -54.386 16.1222
LeftHand  -5.28625 -8.85982 42.5444
RightShoulder  4.08206 8.55408 20.2906
RightArm  2.80105 -38.2347 26.4469
RightForeArm  4.45655 27.7381 -15.0929
RightHand  -0.605964 -0.277359 -13.402
LeftUpLeg  -71.4604 3.86116 -6.85617
LeftLeg  75.9106 -11.5595 11.1205
LeftFoot  -25.2653 0.0512321 1.1209
LeftToes  1.69338e-011 3.79281e-011 -2.20049e-011
220
root  -1.53225 30.5842 -10.0551 -160.729 3.30855 -178.057
RightUpLeg  -38.6014 -6.83681 -0.00405337
RightLeg  83.4354 15.2505 -16.9002
RightFoot  -17.626 1.20356 27.4988
RightToes  -1.16415e-010 -3.18055e-015 -2.98177e-016
Spine  37.5176 -0.0866127 3.13247
Spine1  -5.73559 0.694809 -11.7684
HEad  -31.6011 -12.3904 9.42584
LeftShoulder1  -3.88251e-019 9.70628e-020 -3.87848e-018
LeftArm  -29.9049 45.4952 -39.5439
LeftForeArm  -4.47755 -54.6638 16.2894
LeftHand  -5.14338 -8.86752 41.4711
RightShoulder  4.23145 8.67657 20.988
RightArm  5.0315 -40.1825 24.29
RightForeArm  3.40121 28.7761 -15.624
RightHand  -0.49066 -0.539938 -11.39
LeftUpLeg  -69.5858 3.67079 -6.55365
LeftLeg  74.3881 -11.3146 10.9227
LeftFoot  -26.0573 0.0406112 0.97744
LeftToes  1.69338e-011 3.79281e-011 -2.20049e-011
221
root  -1.52416 30.9844 -10.6449 -160.377 3.01164 -177.81
RightUpLeg  -43.4633 -8.12478 0.996903
RightLeg  84.9843 15.8566 -22.2284
RightFoot  -2.69613 -1.84406 20.4265
RightToes  -1.16415e-010 -3.18055e-015 -2.98177e-016
Spine  37.8623 0.139442 2.00378
Spine1  -7.00606 0.415488 -10.4836
HEad  -32.5464 -13.6042 10.8638
LeftShoulder1  -3.88251e-019 9.70628e-020 -3.87848e-018
LeftArm  -29.0267 43.6179 -38.1095
LeftForeArm  -3.97785 -53.9443 15.8521
LeftHand  -5.02101 -8.72942 40.9474
RightShoulder  4.32355 8.75795 21.401
RightArm  6.49206 -41.9564 22.3588
RightForeArm  1.82289 30.2471 -16.3952
RightHand  -0.344392 -1.07638 -8.89978
LeftUpLeg  -67.8242 3.5212 -6.13392
LeftLeg  73.0111 -11.0787 10.8406
LeftFoot  -26.8137 0.00787161 0.668479
LeftToes  1.69338e-011 3.79281e-011 -2.20049e-011
222
root  -1.48707 31.2333 -11.1978 -160.312 2.80162 -177.619
RightUpLeg  -48.7635 -9.68791 2.4816
RightLeg  86.7927 16.7458 -24.6113
RightFoot  6.22853 -1.91284 10.5466
RightToes  -1.16415e-010 -3.18055e-015 -2.98177e-016
Spine  38.2713 0.30385 0.623972
Spine1  -7.7496 0.162956 -9.012
HEad  -33.0362 -13.9879 11.4498
LeftShoulder1  -3.88251e-019 9.70628e-020 -3.87848e-018
LeftArm  -28.4024 41.4727 -36.7269
LeftForeArm  -2.08131 -51.9823 14.7886
LeftHand  -5.26852 -9.01826 41.9684
RightShoulder  4.33766 8.78317 21.4402
RightArm  7.22117 -43.5223 20.9538
RightForeArm  0.185484 32.1106 -17.4296
RightHand  -0.216867 -1.5769 -6.22318
LeftUpLeg  -66.2224 3.35608 -5.65795
LeftLeg  72.2924 -10.9468 10.8415
LeftFoot  -27.6546 -0.0507617 0.188744
LeftToes  1.69338e-011 3.79281e-011 -2.20049e-011
223
root  -1.44824 31.4284 -11.7856 -160.561 2.90817 -177.296
RightUpLeg  -53.6115 -11.0484 4.45988
RightLeg  88.7982 17.3446 -22.5777
RightFoot  5.22787 -0.832966 4.87733
RightToes  -1.16415e-010 -3.18055e-015 -2.98177e-016
Spine  38.7219 0.453516 -0.61354
Spine1  -8.19103 -0.166339 -7.08178
HEad  -33.1114 -13.6347 11.2992
LeftShoulder1  -3.88251e-019 9.70628e-020 -3.87848e-018
LeftArm  -27.8916 39.5288 -35.2141
LeftForeArm  -0.249242 -49.5947 13.6058
LeftHand  -5.53471 -9.24413 43.2646
RightShoulder  4.32022 8.76487 21.3678
RightArm  7.88141 -44.8184 19.6808
RightForeArm  -1.18153 34.4281 -18.8212
RightHand  -0.119821 -1.68841 -3.40738
LeftUpLeg  -64.3971 3.43029 -5.0664
LeftLeg  71.9416 -10.842 11.0033
LeftFoot  -28.6557 -0.129569 -0.380469
LeftToes  1.69338e-011 3.79281e-011 -2.20049e-011
224
root  -1.42551 31.6366 -12.4065 -160.991 3.45604 -176.718
RightUpLeg  -58.4157 -11.641 6.82792
RightLeg  89.6095 17.2047 -18.9907
RightFoot  -0.625611 -0.494525 4.55557
RightToes  -1.16415e-010 -3.18055e-015 -2.98177e-016
Spine  39.2886 0.608611 -1.30736
Spine1  -8.5539 -0.541622 -4.98475
HEad  -33.1313 -12.8754 10.9531
LeftShoulder1  -3.88251e-019 9.70628e-020 -3.87848e-018
LeftArm  -27.5695 37.9635 -33.711
LeftForeArm  0.389883 -47.5026 12.611
LeftHand  -5.49451 -8.9893 43.6857
RightShoulder  4.3381 8.75984 21.4857
RightArm  8.86709 -45.8959 18.0141
RightForeArm  -2.66649 37.1658 -20.5997
RightHand  -0.0315234 -1.55655 -0.644523
LeftUpLeg  -62.2337 3.8326 -4.31391
LeftLeg  71.5241 -10.6653 11.3794
LeftFoot  -29.7634 -0.231451 -1.02901
LeftToes  1.69338e-011 3.79281e-011 -2.20049e-011
225
root  -1.40344 31.8168 -13.0273 -161.388 4.15952 -175.875
RightUpLeg  -63.3803 -11.3954 9.57474
RightLeg  87.711 16.4108 -16.7275
RightFoot  -5.34049 -0.388464 5.69213
RightToes  -1.16415e-010 -3.18055e-015 -2.98177e-016
Spine  39.9213 0.656473 -1.26728
Spine1  -8.87111 -0.910935 -3.13005
HEad  -33.3442 -12.0101 10.7265
LeftShoulder1  -3.88251e-019 9.70628e-020 -3.87848e-018
LeftArm  -27.6854 36.5813 -32.5282
LeftForeArm  0.332875 -45.5292 11.7121
LeftHand  -5.42686 -8.71309 43.9863
RightShoulder  4.38224 8.80628 21.668
RightArm  9.74459 -47.0029 16.1324
RightForeArm  -4.57334 39.9602 -22.5687
RightHand  0.0349992 -1.59142 1.35492
LeftUpLeg  -60.0911 4.3467 -3.30037
LeftLeg  71.1683 -10.4793 11.815
LeftFoot  -30.9429 -0.368107 -1.80907
LeftToes  1.69338e-011 3.79281e-011 -2.20049e-011
226
root  -1.35264 31.8859 -13.6267 -161.584 4.71567 -175.025
RightUpLeg  -68.0304 -10.6548 12.3929
RightLeg  83.1247 15.1457 -16.0063
RightFoot  -7.44915 -0.220468 4.73306
RightToes  -1.16415e-010 -3.18055e-015 -2.98177e-016
Spine  40.421 0.559688 -0.810535
Spine1  -9.15707 -1.28589 -1.57598
HEad  -33.6362 -11.2128 10.4638
LeftShoulder1  -3.88251e-019 9.70628e-020 -3.87848e-018
LeftArm  -28.2696 35.2754 -31.8512
LeftForeArm  0.154251 -43.3743 10.8035
LeftHand  -5.69701 -8.98424 45.1376
RightShoulder  4.40021 8.87139 21.6567
RightArm  10.0957 -48.272 14.423
RightForeArm  -6.30542 42.4244 -24.4756
RightHand  0.0601039 -1.76442 2.22973
LeftUpLeg  -58.4939 4.76716 -2.21787
LeftLeg  71.357 -10.4301 12.1516
LeftFoot  -32.128 -0.539754 -2.69901
LeftToes  1.69338e-011 3.79281e-011 -2.20049e-011
227
root  -1.25955 31.8136 -14.2012 -161.615 5.18216 -174.526
RightUpLeg  -71.9117 -9.66128 14.5419
RightLeg  77.127 13.7202 -14.685
RightFoot  -8.31898 -0.152299 4.08986
RightToes  -1.16415e-010 -3.18055e-015 -2.98177e-016
Spine  40.7339 0.440763 -0.446725
Spine1  -9.49078 -1.6123 -0.329208
HEad  -33.835 -10.6025 10.0337
LeftShoulder1  -3.88251e-019 9.70628e-020 -3.87848e-018
LeftArm  -29.1837 34.1026 -31.7417
LeftForeArm  -0.413669 -41.2754 9.96553
LeftHand  -6.16667 -9.58247 46.6727
RightShoulder  4.39897 8.9073 21.5832
RightArm  10.1937 -49.4796 12.6742
RightForeArm  -7.15198 44.5075 -26.2778
RightHand  0.0763139 -1.75687 2.73918
LeftUpLeg  -57.4978 5.16499 -1.51377
LeftLeg  72.1657 -10.5258 12.464
LeftFoot  -33.3497 -0.725876 -3.55558
LeftToes  1.69338e-011 3.79281e-011 -2.20049e-011
228
root  -1.14167 31.6605 -14.7488 -161.709 5.73785 -174.161
RightUpLeg  -74.5172 -8.24063 15.6945
RightLeg  70.0949 12.7377 -11.6982
RightFoot  -9.23163 -0.154285 5.14606
RightToes  -1.16415e-010 -3.18055e-015 -2.98177e-016
Spine  41.0707 0.354428 0.102254
Spine1  -9.8418 -1.78828 0.542067
HEad  -34.0568 -10.2455 9.64051
LeftShoulder1  -3.88251e-019 9.70628e-020 -3.87848e-018
LeftArm  -30.3661 33.0547 -32.1837
LeftForeArm  -1.38521 -39.5489 9.29333
LeftHand  -6.49452 -9.90313 47.9337
RightShoulder  4.41197 8.9071 21.662
RightArm  10.2479 -50.3995 10.7299
RightForeArm  -7.24732 46.2142 -27.9232
RightHand  0.112508 -1.63013 3.74745
LeftUpLeg  -56.5538 5.72418 -1.02129
LeftLeg  73.117 -10.636 12.8929
LeftFoot  -34.8149 -0.912418 -4.2605
LeftToes  1.69338e-011 3.79281e-011 -2.20049e-011
